# xmcd CD database file
#
# Track frame offsets:
#	182
#	16382
#	31220
#	47932
#	63530
#	81550
#	101312
#	122442
#	139947
#	160845
#	178302
#	197450
#	208487
#	228455
#
# Disc length: 3258 seconds
#
# Revision: 2
# Processed by: cddbd v1.5.2PL0 Copyright (c) Steve Scherf et al.
# Submitted via: CDex 1.50beta10
#
DISCID=c70cb80e
DTITLE=Menphis La Blusera - Grandes Éxitos
DYEAR=1993
DGENRE=Blues
TTITLE0=blues de las 6 y 30
TTITLE1=boogie mama
TTITLE2=nena segui de largo
TTITLE3=el amor es movimiento
TTITLE4=boogie del preso
TTITLE5=blues de rosario
TTITLE6=moscato pizza y faina
TTITLE7=el escruche
TTITLE8=la bifurcada
TTITLE9=el estibador
TTITLE10=monton de nada
TTITLE11=cuentan las monedas
TTITLE12=tonto rompecabezas
TTITLE13=medias de seda negras
EXTD=YEAR: 1993
EXTT0=
EXTT1=
EXTT2=
EXTT3=
EXTT4=
EXTT5=
EXTT6=
EXTT7=
EXTT8=
EXTT9=
EXTT10=
EXTT11=
EXTT12=
EXTT13=
PLAYORDER=
